<svg width="20" height="25" viewBox="0 0 20 25" fill="none" xmlns="http://www.w3.org/2000/svg">
<g opacity="0.7">
<path d="M4.018 21.9824C3.76905 21.6125 3.62406 21.3726 3.45513 21.1495C1.22826 18.208 1.68922 14.5293 4.64789 12.2424C5.60232 11.5046 6.69968 10.9391 7.71702 10.272C8.40471 9.82084 9.06402 9.33004 9.80608 8.80746H10.2164C11.0573 9.371 11.9437 10.0089 12.7853 10.5715C13.7944 11.2467 14.8993 11.8217 15.7945 12.6136C18.3418 14.8641 18.6308 18.3574 16.6026 21.0565C16.4265 21.2904 16.2562 21.5282 15.9238 21.9817L4.018 21.9824Z" fill="#00CF91"/>
<path d="M10.2172 3.42526H9.80545V8.80734H10.2172V3.42526Z" fill="#00CF91"/>
<path d="M10.0111 8.12806C10.5881 8.12806 11.0558 7.67993 11.0558 7.12713C11.0558 6.57434 10.5881 6.12621 10.0111 6.12621C9.43416 6.12621 8.96643 6.57434 8.96643 7.12713C8.96643 7.67993 9.43416 8.12806 10.0111 8.12806Z" fill="#00CF91"/>
<path d="M10.0123 5.40348C10.371 5.40348 10.6617 5.12492 10.6617 4.7813C10.6617 4.43768 10.371 4.15912 10.0123 4.15912C9.65366 4.15912 9.36292 4.43768 9.36292 4.7813C9.36292 5.12492 9.65366 5.40348 10.0123 5.40348Z" fill="#00CF91"/>
<path d="M10.2722 0.0422643C10.2298 0.0268654 10.186 0.0140883 10.1426 0C10.5813 0.272265 10.8627 0.648063 10.9523 1.14279C11.0419 1.63752 10.9222 2.089 10.5909 2.47889C10.2342 2.89826 9.76537 3.10795 9.20044 3.09812C8.63552 3.08829 8.18242 2.85207 7.8302 2.42516C7.83807 2.4435 7.8432 2.45792 7.84935 2.47004C7.99279 2.78387 8.22613 3.05232 8.52233 3.24425C8.797 3.42471 9.1166 3.53232 9.44871 3.55616C9.48769 3.5591 9.52634 3.56107 9.56532 3.56336L9.75032 3.55812C9.80264 3.55157 9.85497 3.546 9.90695 3.53814C10.0772 3.5129 10.2429 3.46504 10.3994 3.39594C10.6052 3.30609 10.7925 3.18159 10.9523 3.02834C11.1333 2.85682 11.2759 2.65182 11.3716 2.42581C11.4569 2.22673 11.5038 2.01449 11.5101 1.79937C11.5106 1.79354 11.5115 1.78774 11.5128 1.78201L11.5077 1.60443C11.506 1.59817 11.5046 1.59183 11.5036 1.58543C11.48 1.30406 11.3861 1.03225 11.23 0.792877C11.0073 0.447089 10.6701 0.182806 10.2722 0.0422643Z" fill="#00CF91"/>
<path d="M19.0695 21.8609H0.929962V23.0492H19.0695V21.8609Z" fill="#00CF91"/>
<path d="M20 23.0491H0V24.8316H20V23.0491Z" fill="#00CF91"/>
</g>
</svg>
